<svg width="148" height="136" xmlns="http://www.w3.org/2000/svg">

 <g>
  <title>Layer 1</title>
  <path stroke-width="2" id="svg_3" d="m14.47742,32.03635c-0.6129,0 -0.92793,-0.55363 -0.92793,-1.21753c0,-0.5535 0.15749,-1.09089 0.6129,-1.09089c0.31503,0 0.78926,0.53739 0.94676,1.09089c0.31503,0.80589 0,1.21753 -0.63173,1.21753zm104.76848,31.58936c1.40221,0 1.71719,0.14199 0.92793,1.09076c-0.45541,0.6639 -1.40216,1.2174 -1.85757,1.2174c-0.47419,0 -0.94676,-0.5535 -0.94676,-1.2174c0,-0.68019 0.63177,-1.09076 1.8764,-1.09076zm-97.89633,-38.64091c-1.40216,-0.26863 -1.5597,-1.62891 0,-2.03961c0.78922,-0.12647 1.24467,0.26859 1.24467,1.09089c0,0.6801 -0.45546,1.07533 -1.24467,0.94873zm-17.47827,42.97252c1.8764,-0.39527 1.8764,-0.67937 1.24467,-1.61267c-0.47257,-0.67937 -0.63006,-1.50159 -0.31503,-1.77026c0.15749,-0.41143 0.94676,0 1.40216,0.80597c0.63173,1.09089 1.10425,1.23373 2.34892,0.5535c0.77215,-0.41066 1.40216,-0.68001 1.40216,-0.26859c0,0.26859 0.47424,0 1.08713,-0.5535c0.9468,-0.80597 1.10429,-2.57696 0.15754,-3.52577c-0.77044,-0.80597 -4.68072,-0.5373 -5.76786,0.41066c-0.63006,0.68023 -1.10429,0.53816 -1.71719,-0.67924c-0.94676,-2.02423 -0.94676,-2.30841 1.24462,-2.43489c1.8764,0 1.8764,0 0.31503,-0.82221c-0.78755,-0.39527 -1.55965,-1.2174 -1.55965,-1.75479c0,-1.3602 2.17427,-2.16617 3.12102,-1.21736c0.31503,0.39519 0.92797,0.80597 1.5597,0.80597c1.24467,0 7.18713,-4.60046 7.18713,-5.54927c0,-0.41139 0.61461,-0.67997 1.24467,-0.41139c0.7721,0.1428 2.17432,-0.26859 3.59531,-0.94881c2.01506,-1.0908 2.01506,-1.2174 0.92793,-2.98766c-0.77044,-1.2174 -1.71719,-1.62891 -3.90862,-1.62891c-2.4893,0 -3.12102,0.26871 -3.89146,1.89763c-0.31675,1.09076 -1.26345,1.89677 -1.8764,1.89677c-1.08713,0 -1.40216,-1.21667 -0.31503,-1.89677c0.47252,-0.26871 0.78755,-1.2174 0.78755,-2.16621c0,-1.48616 -0.31503,-1.75479 -2.34892,-1.35947c-2.03389,0.26859 -2.03389,0.14199 -1.5597,-1.89771c0.31503,-1.21736 0.77044,-2.30816 1.08718,-2.43476c0.31503,-0.14199 0.63001,-1.35947 0.63001,-2.57687c0,-2.43501 0.92964,-2.84567 2.64855,-1.09089c0.7875,0.94877 1.26178,1.09089 1.55965,0.26859c0.31503,-0.5373 1.41928,-0.6639 3.13818,-0.39531c2.33181,0.53739 2.4893,0.39531 2.17427,-1.2174c-0.15749,-0.94869 -0.3167,-2.03957 -0.47419,-2.30816c0,-0.41079 -0.77044,-0.94881 -1.70008,-1.3596c-1.8764,-0.67997 -2.34892,-2.30816 -0.63173,-2.30816c0.47424,0 0.9296,-0.26871 0.9296,-0.80683c0,-0.41079 0.9468,-0.67937 2.19143,-0.55359c1.71891,0.1428 2.64683,-0.3951 4.99575,-3.24064c1.71891,-2.0397 2.96353,-3.1305 3.12107,-2.577c0.15749,0.67937 0.94676,1.07456 1.71886,1.07456c1.24467,0 1.40221,-0.39519 0.9468,-2.16544c-0.15921,-1.21749 -0.9468,-2.70347 -1.42099,-3.3837c-1.40221,-1.50219 -1.40221,-3.25697 0,-2.7198c1.10425,0.53816 4.5403,-0.94796 4.5403,-1.89673c0,-0.41143 0.45712,-0.6801 1.08713,-0.6801c0.63177,0 0.92964,0.82217 0.92964,1.89759c0,1.35947 0.31503,1.89686 1.10429,1.50154c0.6129,-0.28414 1.08718,-1.09089 1.08718,-1.62814c0,-1.629 4.99571,-4.47459 6.24033,-3.66789c0.47428,0.2688 0.94676,0 1.10606,-0.94869c0.45536,-1.89759 3.2768,-3.3837 4.52142,-2.43489c0.63177,0.39519 1.24472,0.26871 1.40393,-0.14199c0.31498,-0.53811 1.55965,-0.94881 2.96182,-1.0755c1.40216,-0.14199 3.27856,-0.6801 4.06783,-1.2336c2.96182,-1.75479 5.9254,-1.62819 7.17002,0.26953c0.78926,1.35939 1.10425,1.35939 1.10425,0.41057c0,-1.21749 0.61466,-1.35947 4.36574,-0.94869c5.94251,0.53811 6.87215,0.53811 9.06358,-0.14211c1.40216,-0.39527 1.87635,-0.26867 1.87635,0.82209c0,0.68023 0.45546,1.21753 1.08718,1.21753c0.47252,0 0.92793,-0.39531 0.92793,-0.80674c0,-1.09076 2.50817,-1.62814 4.69955,-1.09076c1.70008,0.53811 1.85757,0.67997 1.40216,4.33234c-0.15749,2.18169 0,3.6678 0.29792,3.6678c0.31498,0 0.63173,-0.94881 0.63173,-2.30829c0,-2.29281 1.71719,-3.24086 2.34892,-1.35951c0.15754,0.67941 0.6129,0.4107 0.92793,-0.66386c0.78931,-2.8464 2.50817,-1.36033 2.03389,1.75479c-0.47247,2.57687 -0.47247,2.57687 0.92969,1.62806c0.78922,-0.4107 1.40212,-1.48599 1.40212,-2.16544c0,-0.68014 0.47428,-1.48684 1.10434,-1.77103c1.24458,-0.53717 2.6485,1.50167 2.19138,2.98839c-0.15749,0.6795 -0.15749,1.21749 0.29787,1.21749c0.31675,0 0.63177,-0.39519 0.63177,-0.6801c0,-0.39527 0.7721,-0.53739 1.71886,-0.26859c2.03222,0.4107 2.33009,1.50146 0.61295,2.16536c-0.45541,0.28491 -0.92964,0.94881 -0.92964,1.5024c0,0.94881 0.3167,0.94881 2.03389,0c2.80433,-1.62814 4.04895,-1.5024 4.52323,0.26859c0.31498,0.94881 0.9296,1.36024 1.55965,0.94881c0.63173,-0.14207 2.03389,0.41143 3.12107,1.35947c0.94676,0.8067 2.34892,1.48611 2.98064,1.48611c0.92964,0 0.92964,0.68019 0.6129,2.57769c-0.31498,2.0397 -0.31498,2.30829 0.63177,1.4862c1.24462,-1.34413 1.71719,-1.21761 2.17432,0.67924c0.15749,0.94881 1.26174,1.62891 2.50641,2.03961c1.40216,0.26953 2.17432,0.94877 2.17432,1.75551c0,0.82217 0.47247,1.77026 0.94676,2.30837c1.24467,0.94869 0.92793,3.79427 -0.47428,4.74304c-0.47247,0.28419 -1.08709,0.14211 -1.24462,-0.26859c-0.31498,-0.41151 -1.40216,-0.41151 -3.4361,0c-3.27856,0.94796 -3.89146,1.2174 -3.12102,2.45027c0.47424,0.80597 5.92706,0.53739 8.90604,-0.41143c0.92964,-0.41074 1.24467,0 1.24467,1.89763c0,1.35939 -0.31503,2.43489 -0.78755,2.43489c-0.31675,0 -0.61461,0.41066 -0.61461,1.09076c0,1.62883 0.77215,1.48599 2.80604,-0.41079c1.08542,-1.09076 1.71714,-1.3602 2.4893,-0.67997c0.78755,0.67997 0.94676,0.67997 0.94676,-0.41079c0,-0.66471 -0.31675,-1.2174 -0.78922,-1.2174c-0.29792,0 -0.61466,-0.53811 -0.61466,-1.0755c0,-0.68001 0.45712,-1.2174 1.08713,-1.2174c0.47424,0 1.10429,0.26859 1.10429,0.6639c0,0.4116 0.61461,0.94877 1.40388,1.09089c1.08547,0.41151 1.40216,0.94881 1.24462,2.57696c-0.3167,3.1149 0.31508,4.0638 2.64683,3.5265c1.10429,-0.26953 1.71714,0 1.24467,0.5373c-0.14038,0.26859 0,0.94881 0.31503,1.23279c1.26345,0.80679 0.78922,2.70369 -0.61295,2.70369c-1.71886,0 -2.19143,0.67997 -1.26174,1.8975c0.63001,0.6801 1.10425,0.80597 1.71714,0.26867c1.42099,-1.35947 1.71891,-0.26867 1.8764,5.15469c0,2.71886 0.31503,4.88516 0.63006,4.88516c0.7721,0 0.47424,2.98839 -0.63006,4.20579c-0.61461,0.67937 -0.61461,1.34323 -0.15749,1.89673c1.10425,1.21753 0,4.7433 -1.40393,4.7433c-1.24458,0 -3.59354,2.57687 -3.59354,3.79436c0,1.48693 -2.01506,0 -2.4893,-1.62819c-0.47252,-1.48607 -0.47252,-1.48607 -0.78926,-0.41143c-0.29787,1.23364 1.40388,5.028 2.8232,6.10329c0.9296,0.8223 -0.78926,2.18169 -2.03394,1.62819c-0.63177,-0.26859 -0.92964,-1.07456 -0.92964,-1.89677c0,-2.30816 -3.90862,-8.12683 -6.87215,-10.30843c-1.57677,-1.0755 -2.97898,-2.2929 -2.97898,-2.70356c0,-0.82221 -4.99742,-3.3837 -7.80175,-4.20587c-1.56142,-0.41143 -2.03394,-0.26863 -2.03394,0.82217c0,0.80597 -0.29787,1.07456 -0.92964,0.80597c-1.40216,-0.53739 -2.03389,0.68023 -0.78922,1.89763c1.71886,1.48607 1.42099,3.25697 -0.45541,2.57687c-1.26178,-0.4107 -1.41932,-0.26871 -0.94676,2.03966c0.15749,1.344 0.47424,3.1149 0.47424,3.92087c0,0.82221 0.31498,1.3596 0.63001,1.3596c0.45717,0 0.61461,-0.26871 0.29792,-0.67937c-0.15749,-0.41151 0.15925,-0.80674 0.78922,-0.80674c0.47428,0 0.92964,0.53803 0.92964,1.07533c0,0.55359 -0.61457,1.09076 -1.71886,0.9489c-0.92793,0 -1.71719,-0.39531 -1.71719,-0.66399c0,-1.23373 -4.2082,-9.62914 -5.45283,-10.86202c-1.40221,-1.34413 -0.47257,-1.75479 -11.55292,4.61653c-1.71714,0.94881 -3.59354,2.98839 -4.5403,4.47459c-0.77215,1.48599 -2.01678,2.98839 -2.64683,3.25697c-0.63173,0.26871 -2.96353,2.43489 -4.99747,4.74317c-8.74855,10.16559 -7.32756,11.38307 -6.71461,32.14295c2.6485,15.73097 2.6485,15.73097 2.6485,15.73097c-6.24209,0 -6.24209,0 -6.24209,0c-5.15324,0 -5.15324,0 -5.15324,0c0.47252,-14.51439 0.47252,-14.51439 0.47252,-14.51439c0.31498,-1.21659 0.47424,-3.66767 0.63177,-5.02727c0.15749,-0.8067 -4.38286,-4.33247 -4.22532,-5.13836c0,-0.6801 4.69784,1.21753 4.69784,0.5373c0.7721,-9.897 0,-17.77067 -2.03394,-21.96103c-0.47252,-2.577 -4.38281,-10.8612 -4.99571,-10.8612c-0.15754,0 -1.26178,-0.8067 -2.34892,-1.75551c-1.87645,-1.77017 -2.64683,-1.89686 -13.11429,-2.43489c-11.23785,-0.55277 -11.23785,-0.55277 -11.23785,-0.55277c-2.66395,1.89686 -2.66395,1.89686 -2.66395,1.89686c-1.55965,1.2336 -3.12102,2.03961 -3.57648,2.03961c-0.94676,0 -4.85704,2.84627 -6.55712,4.47433c-0.15749,0 -0.31498,-0.14186 -0.31498,-0.26859c-0.15754,0 -0.15754,0 -0.15754,-0.14207c-0.15749,-0.39519 -0.3167,-0.8067 -0.63173,-1.2174c0.94676,-0.6801 1.71886,-1.09153 2.03389,-0.94869c0.47252,0.26859 0.92964,0 0.92964,-0.68023c0,-0.67937 -0.92964,-0.94877 -3.41894,-0.67937c-2.98069,0.41079 -3.7528,0.55277 -4.22532,2.16549c-0.77215,0.82217 -0.92964,2.03966 -0.47252,2.98847c-0.15925,1.2174 -0.15925,2.03957 0,2.03957c0.15749,0 0.31498,-0.26859 0.78755,-0.5535c0,0.14211 0.15749,0.28491 0.3167,0.41143c-1.56137,0.4107 -2.35063,1.62819 -2.19143,2.84559c-0.78922,0.5535 -1.56137,0.82217 -2.50808,1.23287c0,0 0,-0.14199 -0.14043,-0.14199c0.61461,-1.2174 0.92964,-2.577 1.08713,-4.61657c0.31675,-2.2929 0.15749,-3.79436 -0.31498,-3.79436c-0.31503,0 -0.63173,0.5535 -0.63173,1.35934c0.15744,0.68023 -0.14043,1.3596 -0.77048,1.4862c-0.47424,0.14199 -0.78922,-0.1266 -0.78922,-0.80597c0,-1.62891 -0.61295,-1.62891 -2.01682,-0.1428c-0.63001,0.5535 -1.87468,1.21749 -2.96182,1.5024c-1.42099,0.39519 -1.8764,0.12647 -2.50812,-1.3596c-0.47252,-1.2174 -0.78755,-2.57769 -0.47252,-3.11499c0.15749,-0.6801 0.15749,-1.23287 -0.45541,-1.23287c-1.71891,0 -0.47424,-2.1663 1.55965,-2.57773zm13.42927,-31.17793c-0.94676,-0.14199 -1.71891,-0.5373 -2.03389,-1.0908c-0.15754,-0.8067 -0.31503,-0.8067 -0.31503,0c0,0.5535 -0.63173,0.94881 -1.24467,1.0908c-1.10425,0 -1.10425,0.14207 0.15754,0.68023c0.77039,0.26859 1.55965,0.67924 1.71714,0.67924c0.14038,0 0.92964,-0.41066 1.71891,-0.67924c1.40216,-0.68023 1.40216,-0.68023 0,-0.68023zm123.80641,21.83443c0.29792,0.26871 0.61295,-0.1428 0.61295,-0.82217c0,-0.53803 -0.31503,-1.07541 -0.61295,-1.07541c-0.47419,0 -0.78922,0.26867 -0.78922,0.6639c0,0.41151 0.31503,0.96501 0.78922,1.23369zm-1.10425,1.21749c-0.15749,-0.41151 -0.92964,-0.94877 -1.56137,-0.94877c-0.45541,0 -0.77044,0.53726 -0.45541,0.94877c0.14038,0.4107 0.7721,0.67941 1.40216,0.67941c0.61461,0 0.7721,-0.26871 0.61461,-0.67941zm-1.40216,6.10256c0.47252,0 1.10425,-0.14199 1.10425,-0.26859c0,-0.28491 -0.63173,-0.5535 -1.10425,-0.82221c-0.61461,-0.26867 -1.08718,-0.1266 -1.08718,0.26871c0,0.41143 0.47257,0.82209 1.08718,0.82209zm1.24467,-12.8853c0.63001,-0.2688 0.94671,-0.68019 0.78755,-1.0755c-0.47257,-0.96416 -3.1194,-0.96416 -3.1194,0c0,1.0755 0.92797,1.4862 2.33185,1.0755zm-8.5739,-10.16653c-0.78926,0.41151 -1.26178,1.21749 -1.10434,1.62891c0.78926,1.07469 1.71896,0.80597 2.50646,-0.94881c0.77215,-1.62891 0.45712,-1.8975 -1.40212,-0.6801zm-2.98069,20.88566c4.06778,3.65224 4.22532,3.79436 4.22532,2.57696c0,-0.67937 -0.31503,-1.23287 -0.78926,-1.23287c-0.45536,0 -1.24462,-0.68023 -1.71714,-1.48607c-0.45546,-0.80683 -1.40216,-1.62904 -2.17432,-1.62904c-1.41928,0 -1.41928,0.14284 0.45541,1.77103zm-3.27689,-6.38756c0.94509,0 1.40221,-0.26859 0.7876,-0.39523c-0.47252,-0.26867 -1.24467,-0.26867 -1.71719,0c-0.47428,0.12664 0,0.39523 0.9296,0.39523zm-4.52319,-18.43457c0.47252,0.41079 1.87468,0.94809 3.11931,1.21753c2.19148,0.41066 2.34897,0.41066 1.10429,-0.6801c-1.41928,-1.34413 -5.31073,-1.75479 -4.2236,-0.53743zm-9.5207,-22.4982c-0.47252,0.39519 -0.63001,1.2174 -0.47252,1.75466c0.31503,1.09089 1.24467,0.14211 1.24467,-1.48607c0,-0.82221 -0.15754,-0.94881 -0.77215,-0.26859zm4.68072,29.28108c1.24467,0.67929 1.71891,0.67929 2.35068,-0.26944c1.24462,-1.48616 0.45536,-2.16544 -1.87645,-1.21736c-1.8764,0.66463 -1.8764,0.66463 -0.47424,1.4868zm-3.11931,-6.78287c2.34892,-1.48594 2.34892,-1.48594 0.47252,-1.48594c-1.26178,0 -2.19143,0.53717 -2.66395,1.48594c-0.29792,0.94809 -0.61461,1.4862 -0.45712,1.4862c0,0 1.24467,-0.80679 2.64855,-1.4862zm-3.4361,21.97655c1.08542,1.4862 2.96186,1.4862 2.34892,-0.14207c-0.15749,-0.53803 -0.3167,-1.2174 -0.3167,-1.36024c0,-0.1266 -0.63006,-0.1266 -1.40216,0.14284c-1.26178,0.26867 -1.26178,0.67937 -0.63006,1.35947zm-4.83993,-5.56534c1.24462,1.48616 1.8764,1.62814 3.27856,0.53739c0.92964,-0.67937 0.92964,-0.67937 0,-0.80597c-0.47252,0 -1.71719,-0.14284 -2.80433,-0.41151c-1.56137,-0.5373 -1.56137,-0.5373 -0.47424,0.6801zm-0.15749,-14.78302c0.78922,0 1.71886,-2.16617 1.24467,-2.84554c-0.61295,-0.6801 -1.87473,0.41066 -1.87473,1.62814c0,0.68014 0.31503,1.2174 0.63006,1.2174zm-7.64259,9.21763c-0.94676,0.5535 -0.78922,0.68023 0.45546,0.68023c0.78922,0 1.71714,-0.26953 2.03389,-0.68023c0.47247,-1.07529 -1.08718,-1.07529 -2.48934,0zm0.15754,11.9367c0.14038,0.14284 0.6129,-0.14207 1.08713,-0.80597c0.47247,-0.5535 1.87473,-1.2336 2.96182,-1.50231c1.40216,-0.41079 2.03394,-1.07464 2.03394,-2.03966c0,-2.29196 -2.19143,-1.61271 -4.52328,1.36029c-0.94671,1.50159 -1.71714,2.71907 -1.55961,2.98766zm-1.71886,-6.24472c1.40212,-1.48599 1.40212,-1.75551 0.29782,-2.16621c-1.24462,-0.53739 -2.17255,0.68023 -2.17255,2.84559c-0.15921,1.62891 -0.15921,1.62891 1.87473,-0.67937zm-2.50646,-16.00037c0.15749,1.09076 0.47252,0.94877 1.40212,-1.07541c1.10434,-2.16549 1.10434,-2.4504 0.15754,-2.4504c-0.6129,0 -1.24467,0.41079 -1.40216,1.09093c-0.31503,0.53726 -0.31503,1.77099 -0.15749,2.43489zm-0.77215,-11.11453c0,0.55277 0.29787,1.89686 0.61461,2.84559c0.47252,1.89759 0.47252,1.89759 0.94676,0.26867c0.6129,-1.62806 0,-4.06294 -0.94676,-4.06294c-0.45712,0 -0.61461,0.41057 -0.61461,0.94869zm-10.93826,4.47373c-0.7721,0.94881 -0.7721,1.89763 -0.15921,4.74317c0.31675,2.03961 1.10601,4.07927 1.56137,4.47459c0.78926,0.6801 0.94676,0 1.10425,-4.20514c0,-5.13849 -0.78922,-6.76727 -2.50641,-5.01262zm1.40216,14.37232c0.15754,0.26871 0.47252,-0.26867 0.31503,-1.07537c0,-0.82221 -0.15749,-0.94881 -0.47252,-0.4107c-0.14043,0.5373 -0.14043,1.2174 0.15749,1.48607zm5.62748,-12.7434c-0.15749,0.26871 -0.15749,2.1663 0.31503,4.20514c0.47424,3.5265 0.61461,3.66849 0.77215,1.09153c0.15749,-4.20587 -0.15754,-6.24544 -1.08718,-5.29667zm-5.31245,38.24563c0.94676,-1.62891 2.50646,-4.34799 3.59359,-5.97677c1.24462,-1.75491 2.03389,-4.06307 2.34892,-6.37136c0.45712,-3.65237 0.45712,-3.65237 0.45712,-3.65237c-1.8764,2.02419 -1.8764,2.02419 -1.8764,2.02419c-0.92964,1.09089 -1.5597,2.30829 -1.5597,2.71907c0,1.07533 -2.96353,7.85807 -3.89318,9.07556c-0.47252,0.67924 -1.26178,2.18169 -1.40216,3.25697c-0.78926,3.11434 0.61461,2.57696 2.33181,-1.07529zm-11.08036,13.9608c0.47424,2.70347 0.47424,2.70347 2.03394,-3.11503c0.92964,-3.13054 2.33181,-8.14222 3.27856,-11.25729c1.24462,-3.93647 1.71886,-7.19344 1.71886,-11.7945c0,-5.97617 -0.15921,-6.10277 -1.40383,-5.42254c-2.82149,1.75474 -4.38286,6.6399 -5.01291,16.12612c-0.29787,4.8861 -0.61461,9.77126 -0.9296,10.84667c-0.15754,1.0908 0,3.13046 0.31498,4.61657zm0.31675,-34.70448c0.6129,1.34409 1.24467,2.43489 1.24467,2.43489c0.15749,0 0.92788,-0.82221 1.55965,-1.8975c0.78922,-0.94804 2.03389,-2.03884 2.50646,-2.43416c1.85924,-1.2336 2.33176,-5.02796 0.7721,-7.60492c-1.24467,-2.30829 -4.68072,-4.88601 -5.3125,-4.0638c-0.31498,0.26867 -0.77039,2.8464 -1.08713,5.83406c-0.63001,4.47446 -0.63001,5.83466 0.31675,7.73143zm-0.94676,-31.05198c0.31503,0.26944 0.63001,0.1266 0.63001,-0.28406c0,-0.53811 -0.31498,-1.0755 -0.63001,-1.34413c-0.47424,-0.28487 -0.77215,-0.14207 -0.77215,0.39531c0,0.4107 0.29792,0.94881 0.77215,1.23287zm-50.57891,36.45905c2.17427,0.1428 2.17427,0.1428 2.17427,0.1428c2.19143,0 4.38286,-1.75551 4.38286,-3.25697c0,-0.94881 -0.15749,-0.94881 -6.55712,3.11417zm0.92964,-3.7944c0,0.41164 0.31503,0.82221 0.78926,0.82221c0.77044,0 2.96182,-2.43489 2.4893,-2.84554c-0.47424,-0.5535 -3.27856,1.21736 -3.27856,2.02333zm1.71886,-9.3441c2.34897,2.7042 3.4361,2.97287 4.68072,1.21736c1.26178,-1.62806 0.15754,-2.71894 -3.59526,-3.11426c-3.11935,-0.41151 -3.11935,-0.41151 -1.08547,1.8969zm-1.71886,-7.60423c0,0.28406 1.10425,0.94796 2.34892,1.50146c5.76791,2.577 6.87215,2.577 6.71461,0.12673c0,-1.4862 -2.34892,-4.74326 -3.27856,-4.74326c-1.10425,0 -5.78497,2.57696 -5.78497,3.11507zm8.43352,19.25675c1.71719,0 1.87468,-0.41079 0.47252,-1.07469c-0.63173,-0.1428 -1.24467,0 -1.40216,0.39531c-0.31675,0.41057 0.15749,0.67937 0.92964,0.67937zm1.24467,-31.85808c-1.08718,-0.68019 -2.49106,-0.94877 -3.12107,-0.68019c-1.08713,0.53811 -0.92964,0.68019 0.63001,1.09076c0.77215,0.26953 2.35068,0.53816 3.12107,0.66476c0.92964,0 0.92964,-0.26944 -0.63001,-1.07533zm-0.14038,4.88516c0.92788,0 1.08713,-0.14207 0.45541,-0.55277c-0.45541,-0.12651 -1.08718,-0.12651 -1.40221,0.14211c-0.15749,0.26859 0.31503,0.53739 0.9468,0.41066zm0.92788,3.11511c-2.19138,0 -2.19138,0.12647 -0.92788,1.21736c1.55965,1.2174 2.01506,1.35939 2.64683,0.5373c1.08709,-1.07469 0.31498,-1.75466 -1.71896,-1.75466zm3.12112,-15.3204c-0.63177,-0.6801 -0.78926,0.53739 -0.47257,2.02346c0.15749,0.94881 0.78755,1.7709 1.10429,1.7709c0.6129,0 0.15749,-2.98839 -0.63173,-3.79436zm4.99571,17.89715c-0.31498,0.12673 0.47424,0.94881 1.40388,1.629c0.94676,0.67937 1.71714,0.948 1.71714,0.5373c0,-0.94869 -2.64679,-2.71967 -3.12102,-2.1663zm-3.90862,0.94881c-1.40216,0.9489 -0.6129,3.38366 1.41932,3.79444c1.08713,0.26863 2.80604,1.35951 3.89318,2.4348c0.94676,1.09089 1.71714,1.5024 1.71714,1.09089c0,-1.35947 -6.24038,-7.87363 -7.02964,-7.32013zm6.39963,11.25742c-0.9296,-2.1825 -2.01678,-3.25719 -4.05071,-3.93729c-1.55965,-0.5373 -3.12102,-0.82209 -3.59354,-0.67929c-0.47424,0.14199 1.40216,1.89677 4.06783,3.93639c4.99571,3.52577 4.99571,3.52577 3.57643,0.68019zm8.29143,-20.88575c-0.31503,0 -0.63177,0.53739 -0.63177,1.07469c0,0.6801 0.31675,1.09089 0.63177,1.09089c0.45541,0 0.77215,-0.41079 0.77215,-1.09089c0,-0.5373 -0.31675,-1.07469 -0.77215,-1.07469zm-1.41928,11.11453c0,0.94869 2.66395,0.26867 3.75108,-0.94881c1.5597,-2.03957 1.40216,-2.57696 -0.63173,-2.57696c-1.40216,0 -3.11935,1.89767 -3.11935,3.52577zm4.54035,-29.2812c-0.47424,1.75479 -0.78926,3.24086 -0.63173,3.3837c0.47419,0.53739 1.71891,-3.52569 1.71891,-5.1546c0,-0.67937 -0.47428,0.14284 -1.08718,1.7709zm8.11682,27.38358c-0.78926,0 -1.40221,0.26953 -1.40221,0.8067c0,0.41079 0.45541,0.68023 0.92793,0.68023c0.63173,0 1.24467,-0.26944 1.40388,-0.68023c0.31503,-0.53717 -0.15921,-0.8067 -0.9296,-0.8067zm-1.87645,25.48672c0.92964,2.45113 2.33181,4.74317 3.12107,5.29667c0.78926,0.41079 2.34892,2.30837 3.27856,4.20587c0.92964,1.89686 1.8764,3.38297 2.03394,3.38297c0.77039,0 -0.78926,-12.474 -1.8764,-16.26909c-0.9468,-3.25624 -1.24472,-6.24472 -1.08718,-10.98789c0.14038,-3.52569 0,-6.64076 -0.31498,-6.90939c-0.15754,-0.26867 -1.24467,-0.26867 -2.19143,0c-1.71891,0.5373 -1.8764,0.94881 -1.8764,3.9372c0,2.29209 -0.31508,3.52577 -1.08718,4.06294c-2.19138,1.21753 -2.03389,8.12687 0,13.2807zm-4.52319,-18.16582c-0.31503,-2.03961 -0.63001,-2.30829 -2.34892,-2.30829c-2.03394,0 -2.03394,0.14207 -1.8764,2.98766c0,1.75551 0.3167,3.79509 0.47419,4.74313c0.15754,0.94881 0.77215,1.8975 1.40221,2.03961c1.24462,0.68019 2.64679,-4.06294 2.34892,-7.46212zm-2.34892,13.69136c-1.40221,-1.62819 -2.34892,-3.38297 -2.48934,-3.79436c0,-0.5373 -0.78922,-1.89677 -1.71719,-3.11426c-0.94676,-1.2174 -2.03389,-2.71971 -2.50812,-3.2571c-1.55965,-1.8975 -1.24467,-0.26859 0.47424,3.93647c1.08713,2.84627 2.96186,5.42327 5.15324,7.58944c4.05067,3.66776 4.52323,2.98779 1.08718,-1.3602zm-2.48934,6.65614c1.70008,0 1.5597,-0.14199 -0.78922,-2.30816c-1.5597,-1.3596 -2.64683,-2.84567 -2.64683,-3.52581c0,-0.53726 -2.03394,-2.45036 -4.38281,-4.20514c-2.33185,-1.77086 -4.52328,-3.52564 -4.83826,-4.06367c-0.31675,-0.67937 -0.47424,-0.67937 -0.47424,0.1266c0,0.82221 -0.77044,0.94869 -3.27856,0.5373c-1.71719,-0.26871 -3.11935,-0.26871 -3.11935,-0.12587c0,0.26867 0.63001,1.89686 1.26178,3.52564c1.08718,2.7036 1.55965,3.25719 4.99575,4.33179c2.17432,0.6801 5.61032,2.30824 7.80175,3.52564c2.03394,1.23373 4.52323,2.18169 5.46999,2.18169zm-24.3692,4.60106c0.63173,0 1.56137,-0.26859 2.19138,-0.67997c1.08718,-0.94809 0.15925,-0.94809 -1.87468,0c-0.92964,0.41139 -1.08713,0.53799 -0.3167,0.67997zm-1.71719,-3.38366c1.5597,-0.55269 6.55712,-1.0908 11.09747,-1.0908c8.57223,-0.1266 10.29109,-0.53717 6.85499,-1.35947c-1.08709,-0.26859 -3.57643,-0.94881 -5.61032,-1.62819c-3.59359,-1.2174 -10.93998,-0.8067 -11.71041,0.5529c-0.15921,0.26931 -0.94676,0.41139 -1.71886,0.26931c-1.5597,-0.41143 -3.12107,0.67946 -3.59359,2.84567c-0.63173,1.75466 0.47252,1.8975 4.68072,0.41057zm-12.48252,3.11507c0.31503,1.09089 1.8764,1.2174 3.12107,0.26859c0.77039,-0.53726 0.77039,-0.80584 0,-1.62806c-0.63173,-0.80683 -1.08713,-0.80683 -2.03389,-0.1266c-0.63173,0.39531 -1.08718,1.07469 -1.08718,1.48607zm-4.99575,9.48634c0.61295,0 0.92797,0.41079 0.61295,1.21749c-0.14043,0.5535 -0.61295,1.0908 -0.92964,1.0908c-0.47252,0 -0.77044,-0.5373 -0.77044,-1.0908c0,-0.6639 0.45541,-1.21749 1.08713,-1.21749z" stroke="#000" fill="#fff"/>
 </g>
</svg>